<svg xmlns="http://www.w3.org/2000/svg" viewBox="0 0 42.99 35.38"><defs><style>.cls-1{fill:#fff;}</style></defs><g id="Layer_2" data-name="Layer 2"><g id="ELEMENTS"><path class="cls-1" d="M42.81,4.24a17.62,17.62,0,0,1-4.35,1.24c.7-.12,1.73-1.38,2.14-1.89A8,8,0,0,0,42,1c0-.07.07-.17,0-.22a.24.24,0,0,0-.23,0,22,22,0,0,1-5.15,2,.36.36,0,0,1-.36-.09,5,5,0,0,0-.45-.47A9.38,9.38,0,0,0,33.35.63,8.65,8.65,0,0,0,29.52,0a9.27,9.27,0,0,0-3.64,1A9.43,9.43,0,0,0,23,3.44a9.24,9.24,0,0,0-1.75,3.5,9.61,9.61,0,0,0-.09,3.7c0,.21,0,.24-.18.21C13.85,9.8,8,7.27,3.22,1.84c-.21-.24-.32-.24-.49,0C.65,5,1.66,10,4.26,12.47c.35.33.71.65,1.09.95a8.93,8.93,0,0,1-3.42-.95c-.2-.13-.31-.06-.32.18a5.89,5.89,0,0,0,0,1,9.08,9.08,0,0,0,5.6,7.24,5.68,5.68,0,0,0,1.13.35,10.23,10.23,0,0,1-3.35.1c-.24-.05-.33.08-.24.31,1.47,4,4.66,5.22,7,5.9.32.05.64.05,1,.13,0,0,0,0-.06.06C12,29,9.21,29.85,7.93,30.29a17.11,17.11,0,0,1-7.3.94c-.39-.06-.48-.05-.58,0s0,.16.11.26c.5.33,1,.62,1.52.9a23.94,23.94,0,0,0,4.88,2c8.78,2.42,18.66.64,25.25-5.91,5.18-5.14,7-12.23,7-19.33,0-.27.33-.43.52-.57A17.17,17.17,0,0,0,42.76,5,1.12,1.12,0,0,0,43,4.28v0C43,4.13,43,4.16,42.81,4.24Z"/></g></g></svg>